<?xml version="1.0" encoding="utf-8"?>
<!-- Generator: Adobe Illustrator 23.1.0, SVG Export Plug-In . SVG Version: 6.00 Build 0)  -->
<svg version="1.1" id="Layer_1" xmlns="http://www.w3.org/2000/svg" xmlns:xlink="http://www.w3.org/1999/xlink" x="0px" y="0px"
	 viewBox="0 0 800 800" style="enable-background:new 0 0 800 800;" xml:space="preserve">
<style type="text/css">
	.st0{fill-rule:evenodd;clip-rule:evenodd;}
</style>
<path class="st0" d="M398.1,41.7h3.8c76.9,0,137.2,0,184.3,6.3c48.2,6.5,86.2,20,116,49.8c29.8,29.8,43.3,67.8,49.8,116
	c6.3,47,6.3,107.4,6.3,184.3v3.8c0,76.9,0,137.2-6.3,184.3c-6.5,48.2-20,86.2-49.8,116c-29.8,29.8-67.8,43.3-116,49.8
	c-47,6.3-107.3,6.3-184.3,6.3h-3.8c-76.9,0-137.2,0-184.3-6.3c-48.2-6.5-86.2-20-116-49.8C68,672.4,54.5,634.4,48,586.2
	c-6.3-47-6.3-107.3-6.3-184.3v-3.8c0-76.9,0-137.2,6.3-184.3c6.5-48.2,20-86.2,49.8-116s67.8-43.3,116-49.8
	C260.8,41.7,321.1,41.7,398.1,41.7z M208.3,99.4c-35.5,6.1-58.1,16.6-75.2,33.8c-17.1,17.1-27.7,39.7-33.8,75.2h108.9V99.4z
	 M258.3,94v612c37.5,2.3,83.6,2.3,141.7,2.3s104.1,0,141.7-2.3V94c-37.5-2.3-83.6-2.3-141.7-2.3S295.9,91.7,258.3,94z M591.7,99.4
	v108.9h108.9c-6.1-35.5-16.7-58.1-33.8-75.2C649.7,116,627.2,105.5,591.7,99.4z M706,258.3H591.7V375h116.7
	C708.3,328.5,708,290.3,706,258.3z M708.3,425H591.7v116.7H706C708,509.7,708.3,471.5,708.3,425z M700.6,591.7H591.7v108.9
	c35.5-6.1,58.1-16.7,75.2-33.8C684,649.7,694.5,627.2,700.6,591.7z M208.3,700.6V591.7H99.4c6.1,35.5,16.6,58.1,33.8,75.2
	C150.3,684,172.8,694.5,208.3,700.6z M94,541.7h114.3V425H91.7C91.7,471.5,92,509.7,94,541.7z M91.7,375h116.7V258.3H94
	C92,290.3,91.7,328.5,91.7,375z M426,324.9c0.6,0.4,1.1,0.7,1.7,1.1l1.5,1c16.3,11,30.9,20.8,41.2,30.2
	c11.1,10.3,21.3,23.8,21.3,42.7c0,18.9-10.2,32.4-21.3,42.7c-10.3,9.4-24.8,19.2-41.2,30.2l-1.5,1c-0.6,0.4-1.1,0.8-1.7,1.1
	c-16.5,11.1-31.3,21-43.7,26.8c-13.1,6-31.6,11.2-49.4-0.6c-16.3-10.8-20.8-28.8-22.7-43.3c-1.9-14.6-1.9-33.9-1.9-56.3v-3.4
	c0-22.4,0-41.6,1.9-56.3c1.8-14.5,6.4-32.5,22.7-43.3c17.8-11.8,36.3-6.6,49.4-0.5C394.7,303.9,409.5,313.9,426,324.9z M360.6,343.3
	c0.2,0.1,0.4,0.2,0.6,0.3c8.4,3.9,19.8,11.5,38.5,24c18.4,12.3,29.7,20,36.7,26.5c3.3,3,4.6,4.9,5,5.7c0,0.1,0.1,0.2,0.1,0.2
	c0,0.1-0.1,0.1-0.1,0.2c-0.5,0.8-1.7,2.6-5,5.7c-7.1,6.5-18.4,14.2-36.7,26.5c-18.7,12.5-30.1,20.1-38.5,24
	c-0.2,0.1-0.4,0.2-0.6,0.3c-0.3-1.3-0.6-3-0.8-5.1c-1.4-11.1-1.5-27-1.5-51.6c0-24.6,0.1-40.6,1.5-51.6
	C360.1,346.2,360.4,344.6,360.6,343.3z"/>
</svg>
